<svg version="1.1" viewBox="0.0 0.0 512.0 512.0" fill="none" stroke="none" stroke-linecap="square" stroke-miterlimit="10" xmlns:xlink="http://www.w3.org/1999/xlink" xmlns="http://www.w3.org/2000/svg"><clipPath id="p.0"><path d="m0 0l512.0 0l0 512.0l-512.0 0l0 -512.0z" clip-rule="nonzero"/></clipPath><g clip-path="url(#p.0)"><path fill="#ffffff" d="m0 0l512.0 0l0 512.0l-512.0 0z" fill-rule="evenodd"/><path fill="#93c47d" d="m32.0 40.0l299.3071 0l0 94.20473l-299.3071 0z" fill-rule="evenodd"/><path fill="#6d9eeb" d="m359.97638 40.0l120.06299 0l0 94.20473l-120.06299 0z" fill-rule="evenodd"/><path fill="#e06666" d="m32.0 152.0l173.10236 0l0 94.20473l-173.10236 0z" fill-rule="evenodd"/><path fill="#ffd966" d="m240.91077 152.0l239.08661 0l0 94.20473l-239.08661 0z" fill-rule="evenodd"/><path fill="#c27ba0" d="m32.0 264.0l352.37796 0l0 94.20471l-352.37796 0z" fill-rule="evenodd"/><path fill="#f6b26b" d="m32.0 380.16534l167.59055 0l0 94.20474l-167.59055 0z" fill-rule="evenodd"/><path fill="#93c47d" d="m231.66142 380.16534l248.37794 0l0 94.20474l-248.37794 0z" fill-rule="evenodd"/></g></svg>